<svg width="48" height="13" viewBox="0 0 48 13" fill="none" xmlns="http://www.w3.org/2000/svg">
<path d="M10.12 0.799999L12.04 8L13.72 0.799999H16.84L13.8 12H10.76L8.84 5.04L6.92 12H3.88L0.84 0.799999H3.96L5.64 8L7.56 0.799999H10.12ZM27.4075 12H24.3675L20.5275 5.28V12H17.6475V0.799999H20.6875L24.5275 7.52V0.799999H27.4075V12ZM38.215 12H29.335V0.799999H38.215V3.04H32.215V5.2H36.935V7.44H32.215V9.76H38.215V12ZM44.7713 12.16C42.9899 12.16 41.0166 12.0533 38.8513 11.84V9.68C41.2086 9.84 42.9686 9.92 44.1313 9.92C44.3766 9.92 44.5686 9.85067 44.7073 9.712C44.8566 9.56267 44.9313 9.36533 44.9313 9.12V8.48C44.9313 7.84 44.6113 7.52 43.9713 7.52H40.6113V5.28H43.6513C44.2913 5.28 44.6113 4.96 44.6113 4.32V4C44.6113 3.36 44.2913 3.04 43.6513 3.04H39.0113V0.799999H44.4513C45.4966 0.799999 46.2646 1.04 46.7552 1.52C47.2459 1.98933 47.4913 2.70933 47.4913 3.68C47.4913 4.32 47.3419 4.84267 47.0433 5.248C46.7552 5.64267 46.3712 5.92 45.8913 6.08C46.7553 6.31467 47.3419 6.89067 47.6513 7.808C47.7579 8.13867 47.8113 8.52267 47.8113 8.96V9.12C47.8113 10.1653 47.5659 10.9333 47.0753 11.424C46.5846 11.9147 45.8166 12.16 44.7713 12.16Z" fill="white"/>
</svg>
